<?xml version="1.0" encoding="utf-8"?>
<!-- Generator: Adobe Illustrator 16.0.4, SVG Export Plug-In . SVG Version: 6.00 Build 0)  -->
<!DOCTYPE svg PUBLIC "-//W3C//DTD SVG 1.1//EN" "http://www.w3.org/Graphics/SVG/1.1/DTD/svg11.dtd">
<svg version="1.1" id="Layer_1" xmlns="http://www.w3.org/2000/svg" xmlns:xlink="http://www.w3.org/1999/xlink" x="0px" y="0px"
	 width="80px" height="80px" viewBox="0 0 80 80" enable-background="new 0 0 80 80" xml:space="preserve">
<rect fill="#325C80" width="80" height="80"/>
<g>
	<defs>
		<rect id="SVGID_1_" width="80" height="80"/>
	</defs>
	<clipPath id="SVGID_2_">
		<use xlink:href="#SVGID_1_"  overflow="visible"/>
	</clipPath>
	<path clip-path="url(#SVGID_2_)" fill="#FFFFFF" d="M50.869,24.454l-0.673-5.965c-11.83,0.943-22.177,7.126-28.724,16.234
		l4.699,3.768C31.746,30.585,40.673,25.212,50.869,24.454"/>
	<path clip-path="url(#SVGID_2_)" fill="#FFFFFF" d="M51.571,31.302c0.022-0.002,0.047-0.001,0.07-0.003l-0.533-4.732
		c-9.643,0.688-18.065,5.764-23.288,13.247l3.727,2.988c0.003-0.004,0.006-0.01,0.009-0.015l23.334,18.53L51.571,31.302z
		 M36.782,42.088c-1.749,0-3.167-1.417-3.167-3.166s1.418-3.167,3.167-3.167s3.166,1.418,3.166,3.167S38.531,42.088,36.782,42.088
		 M43.782,37.005c0-1.749,1.417-3.167,3.166-3.167s3.167,1.418,3.167,3.167s-1.418,3.167-3.167,3.167S43.782,38.754,43.782,37.005
		 M48.365,53.005c-1.749,0-3.167-1.418-3.167-3.167s1.418-3.166,3.167-3.166s3.167,1.417,3.167,3.166S50.114,53.005,48.365,53.005"
		/>
</g>
</svg>
